HIERARCHY
ROOT Hips
{
	OFFSET	0.00	0.00	0.00
	CHANNELS 6 Xposition Yposition Zposition Zrotation Xrotation Yrotation
	JOINT Spine
	{
		OFFSET	 0.00	0.01	 0.00
		CHANNELS 3 Zrotation Xrotation Yrotation
		JOINT Spine1
		{
			OFFSET	 0.00	 2.45913012437421	 0.00
			CHANNELS 3 Zrotation Xrotation Yrotation
            JOINT Neck
            {
                OFFSET	 0.00	 2.48462964506057	 0.00
                CHANNELS 3 Zrotation Xrotation Yrotation
                JOINT Head
                {
                    OFFSET	 0.00	 0.927524780924562	 0.00
                    CHANNELS 3 Zrotation Xrotation Yrotation
                    End Site 
                    {
                        OFFSET	 0.00	 1.14999962169752	 0.00
                    }
                }
            }
			JOINT LeftShoulder
			{
				OFFSET	 0.00	 2.48462964506057	 0.00
				CHANNELS 3 Zrotation Xrotation Yrotation
				JOINT LeftUpArm
				{
					OFFSET	 0.00	 1.24881979654096	 0.00
					CHANNELS 3 Zrotation Xrotation Yrotation
					JOINT LeftForeArm
					{
						OFFSET	 0.00	2.59758046908119	 0.00
						CHANNELS 3 Zrotation Xrotation Yrotation
						JOINT LeftHand
						{
							OFFSET	 0.00	2.45542024364365	 0.00
							CHANNELS 3 Zrotation Xrotation Yrotation
							JOINT LeftHandThumb 
							{
								OFFSET	 0.00	0.00	 0.00
								CHANNELS 3 Zrotation Xrotation Yrotation
								End Site
								{
									OFFSET	 0.00	0.00	1.00000003353624
								}
							}
							JOINT L_Wrist_End 
							{
								OFFSET	 0.00	0.99999967115358	 0.00
								CHANNELS 3 Zrotation Xrotation Yrotation
								End Site 
								{
									OFFSET	 0.00	 0.00	 0.00
								}
							}
						}
					}
				}
			}
			JOINT RightShoulder
			{
				OFFSET	 0.00	 2.48462964506057	 0.00
				CHANNELS 3 Zrotation Xrotation Yrotation
				JOINT RightUpArm
				{
					OFFSET	 0.00	 1.24881979654096	 0.00
					CHANNELS 3 Zrotation Xrotation Yrotation
					JOINT RightForeArm
					{
						OFFSET	 0.00	2.59758046908119	 0.00
						CHANNELS 3 Zrotation Xrotation Yrotation
						JOINT RightHand
						{
							OFFSET	 0.00	2.45542024364365	 0.00
							CHANNELS 3 Zrotation Xrotation Yrotation
							JOINT RightHandThumb 
							{
								OFFSET	 0.00	0.00	 0.00
								CHANNELS 3 Zrotation Xrotation Yrotation
								End Site
								{
									OFFSET	 0.00	0.00	1.00000003353624
								}
							}
							JOINT R_Wrist_End 
							{
								OFFSET	 0.00	0.99999967115358	 0.00
								CHANNELS 3 Zrotation Xrotation Yrotation
								End Site 
								{
									OFFSET	 0.00	 0.00	 0.00
								}
							}
						}
					}
				}
			}
		}
	}
	JOINT LeftUpLeg
	{
		OFFSET	 1.2719394002717	 0.00	 0.00
		CHANNELS 3 Zrotation Xrotation Yrotation
		JOINT LeftLowLeg
		{
			OFFSET	 0.00	-4.3429100912261	 0.00
			CHANNELS 3 Zrotation Xrotation Yrotation
			JOINT LeftFoot
			{
				OFFSET	 0.00	-4.48767017425826	 0.00
				CHANNELS 3 Zrotation Xrotation Yrotation
				JOINT LeftToeBase
                {
                    OFFSET	 0.00	0.00	 1.51507020887566
                    CHANNELS 3 Zrotation Xrotation Yrotation
                    End Site 
                    {
                        OFFSET	 0.00	0.00	 0.75000010571191
                    }
                }
			}
		}
	}
	JOINT RightUpLeg
	{
		OFFSET	 -1.2719393604653	 0.00	 0.00
		CHANNELS 3 Zrotation Xrotation Yrotation
		JOINT RightLowLeg
		{
			OFFSET	 0.00	-4.3429100912261	 0.00
			CHANNELS 3 Zrotation Xrotation Yrotation
			JOINT RightFoot
			{
				OFFSET	 0.00	-4.48767017425826	 0.00
				CHANNELS 3 Zrotation Xrotation Yrotation
				JOINT RightToeBase
                {
                    OFFSET	 0.00	0.00	 1.51507020887566
                    CHANNELS 3 Zrotation Xrotation Yrotation
                    End Site 
                    {
                        OFFSET	 0.00	0.00	 0.749999965609858
                    }
                }   
			}
		}
	}
}
MOTION 
Frames:	16 
Frame Time: 0.02 
  -2.3543099975585937 4.021419982910157 9.370869750976562 -160.678 68.7005 166.833 2.33988 -19.726 2.46773 -3.00713 2.37629 -3.98199 18.6436 46.8421 -15.1776 -16.0074 -77.8331 -0.952891 -106.8508 -7.34674 4.15327 -53.8346 -4.28197 -387.948 0.0 64.1948 0.0 14.8726 -34.1812 -25.8691 0.0 0.0 0.0 0.0 0.0 0.0 108.7216 -13.2796 2.94279 46.763 -10.7294 -334.58 0.0 110.446 0.0 -3.14182 -38.7693 70.4927 0.0 0.0 0.0 0.0 0.0 0.0 -1.88995 -16.5847 -11.8896 0.0 0.843626 0.0 -1.68211 -1.1366997 17.0621 0.0 -10.03931 0.0 10.4879 -20.1593 384.151 0.0 24.566 0.0 6.76804 -1.8684998 -22.5656 0.0 -24.38065 0.0 
  -2.354620056152344 4.019700012207031 9.37176025390625 -160.424 68.6934 166.757 2.36753 -19.7818 2.43681 -3.00391 2.39486 -4.03339 18.7023 46.9077 -15.2313 -16.0512 -77.8337 -0.987716 -106.8798 -7.34498 4.12802 -53.7845 -4.19271 -387.759 0.0 64.1965 0.0 14.914 -34.1585 -25.755 0.0 0.0 0.0 0.0 0.0 0.0 108.7386 -13.33 2.99377 46.8165 -10.776 -334.513 0.0 110.793 0.0 -3.17592 -39.0667 70.417 0.0 0.0 0.0 0.0 0.0 0.0 -1.84818 -16.5855 -11.8702 0.0 0.850589 0.0 -1.64969 -1.1100006 16.9113 0.0 -10.03642 0.0 10.5876 -20.0776 384.236 0.0 24.4872 0.0 6.77692 -1.8253002 -22.942 0.0 -24.42004 0.0 
  -2.3556500244140626 4.01718994140625 9.37333984375 -160.161 68.6817 166.645 2.37831 -19.8579 2.41395 -2.95961 2.4347 -4.0604 18.7521 46.9044 -15.2839 -16.0986 -77.8876 -1.04538 -106.9107 -7.3471 4.13747 -53.7824 -4.08069 -387.624 0.0 64.2028 0.0 14.9639 -34.1617 -25.7518 0.0 0.0 0.0 0.0 0.0 0.0 108.776505 -13.3656 3.04103 46.82 -10.76 -334.433 0.0 111.104 0.0 -2.77447 -39.106 70.1188 0.0 0.0 0.0 0.0 0.0 0.0 -1.78209 -16.5884 -11.7848 0.0 0.872295 0.0 -1.67164 -1.1042995 16.6833 0.0 -10.04413 0.0 10.6681 -19.9687 384.22 0.0 24.3301 0.0 6.77549 -1.7626991 -23.2296 0.0 -24.37591 0.0 
  -2.356600036621094 4.015570068359375 9.374669799804687 -160.035 68.6703 166.595 2.3676 -19.9058 2.40155 -2.91943 2.44934 -4.06325 18.7373 46.851 -15.2642 -16.0478 -77.9319 -1.03426 -106.9061 -7.36018 4.15629 -53.8559 -3.99485 -387.603 0.0 64.2037 0.0 14.9412 -34.1479 -25.7843 0.0 0.0 0.0 0.0 0.0 0.0 108.829 -13.3925 3.11254 46.7558 -10.687 -334.531 0.0 111.304 0.0 -3.37743 -39.2268 70.1676 0.0 0.0 0.0 0.0 0.0 0.0 -1.74353 -16.5916 -11.6756 0.0 0.881177 0.0 -1.6928 -1.0969009 16.4988 0.0 -10.05643 0.0 10.6916 -19.8815 384.181 0.0 24.1692 0.0 6.74349 -1.7064991 -23.379 0.0 -24.3541 0.0 
  -2.3584800720214845 4.012160034179687 9.376900024414063 -159.867 68.6376 166.529 2.3314 -20.0064 2.38943 -2.84584 2.46479 -4.04492 18.8754 46.6736 -15.4519 -15.9393 -77.9971 -0.909737 -106.8815 -7.33803 4.17834 -54.0244 -3.96101 -387.616 0.0 64.2364 0.0 14.7927 -34.105 -25.9594 0.0 0.0 0.0 0.0 0.0 0.0 108.845 -13.4104 3.17301 46.7161 -10.5446 -334.642 0.0 111.613 0.0 -3.70505 -39.332 69.5867 0.0 0.0 0.0 0.0 0.0 0.0 -1.68692 -16.6062 -11.4138 0.0 0.88944 0.0 -1.72114 -1.0681 16.1594 0.0 -10.08259 0.0 10.6852 -19.7007 384.087 0.0 23.7965 0.0 6.66601 -1.6107006 -23.5357 0.0 -24.270561 0.0 
  -2.3598699951171875 4.009630126953125 9.378259887695313 -159.777 68.6053 166.48 2.31394 -20.0699 2.40441 -2.8037 2.43207 -4.01413 18.9624 46.4955 -15.5659 -15.6961 -78.0354 -0.701169 -106.8746 -7.3123 4.18387 -54.1361 -4.01747 -387.615 0.0 64.2833 0.0 14.7314 -34.12 -25.8825 0.0 0.0 0.0 0.0 0.0 0.0 108.8424 -13.4255 3.22181 46.6434 -10.5054 -334.65 0.0 111.899 0.0 -3.09497 -39.1983 70.0527 0.0 0.0 0.0 0.0 0.0 0.0 -1.65228 -16.6171 -11.2389 0.0 0.88403 0.0 -1.69346 -1.0489998 15.9933 0.0 -10.0532 0.0 10.6514 -19.5716 384.009 0.0 23.5047 0.0 6.67551 -1.5688 -23.5099 0.0 -24.2054 0.0 
  -2.3616099548339844 4.006199951171875 9.379130249023438 -159.696 68.5564 166.436 2.30631 -20.1577 2.42718 -2.7845 2.40354 -3.98074 19.1001 46.3043 -15.7323 -15.349 -78.0492 -0.337656 -106.8804 -7.30249 4.16158 -54.2246 -4.06657 -387.645 0.0 64.2974 0.0 14.8139 -34.087 -25.7732 0.0 0.0 0.0 0.0 0.0 0.0 108.8176 -13.4187 3.2693 46.6139 -10.3718 -334.834 0.0 112.142 0.0 -4.05388 -39.6931 67.4443 0.0 0.0 0.0 0.0 0.0 0.0 -1.61923 -16.6445 -11.1638 0.0 0.885598 0.0 -1.63858 -1.0394001 15.9547 0.0 -10.06035 0.0 10.5921 -19.427 383.906 0.0 23.1518 0.0 6.66662 -1.5398998 -23.414 0.0 -24.121029 0.0 
  -2.3637399291992187 4.003219909667969 9.379240112304688 -159.696 68.4931 166.426 2.28425 -20.2619 2.45424 -2.76578 2.37927 -3.93119 19.2011 46.0775 -15.8534 -14.8583 -78.0303 0.141342 -106.9107 -7.33364 4.12763 -54.246 -4.13001 -387.605 0.0 64.3083 0.0 15.0411 -34.091 -25.4899 0.0 0.0 0.0 0.0 0.0 0.0 108.7854 -13.3971 3.31623 46.5582 -10.2252 -334.824 0.0 112.209 0.0 -2.24254 -38.9603 67.3969 0.0 0.0 0.0 0.0 0.0 0.0 -1.59715 -16.6943 -11.1956 0.0 0.895253 0.0 -1.59467 -1.0620995 16.0474 0.0 -10.05215 0.0 10.5168 -19.2875 383.899 0.0 22.776 0.0 6.67373 -1.5431004 -23.298 0.0 -24.01891 0.0 
  -2.3659800720214843 3.999320068359375 9.378670043945313 -159.755 68.4428 166.477 2.24994 -20.3839 2.48817 -2.76399 2.37137 -3.86351 19.3301 45.8575 -16.0134 -14.4121 -78.0083 0.583836 -106.9708 -7.32687 4.1243 -54.1863 -4.22629 -387.52 0.0 64.3231 0.0 15.083 -34.1376 -25.6828 0.0 0.0 0.0 0.0 0.0 0.0 108.809 -13.3728 3.33008 46.4108 -10.1658 -335.01 0.0 112.482 0.0 -2.91187 -38.5646 70.2447 0.0 0.0 0.0 0.0 0.0 0.0 -1.59954 -16.7379 -11.3105 0.0 0.92217 0.0 -1.48252 -1.0585995 16.2304 0.0 -10.11654 0.0 10.4319 -19.0955 384.003 0.0 22.3502 0.0 6.67719 -1.6054993 -23.3201 0.0 -23.83799 0.0 
  -2.3689700317382814 3.9945999145507813 9.377940063476563 -159.841 68.419 166.543 2.20164 -20.5148 2.52745 -2.7737 2.40533 -3.77653 19.5311 45.663 -16.2556 -14.0642 -78.0214 0.951141 -107.0827 -7.29309 4.14108 -54.0348 -4.36322 -387.413 0.0 64.3826 0.0 15.1873 -34.0435 -25.9512 0.0 0.0 0.0 0.0 0.0 0.0 108.8539 -13.329 3.35841 46.2674 -9.99939 -335.15 0.0 112.6 0.0 -3.19185 -38.3601 70.065 0.0 0.0 0.0 0.0 0.0 0.0 -1.60611 -16.7546 -11.3857 0.0 0.950213 0.0 -1.52058 -1.1305008 16.3252 0.0 -10.06174 0.0 10.3174 -18.9066 383.927 0.0 21.9612 0.0 6.6532 -1.6553001 -23.1907 0.0 -23.68885 0.0 
  -2.3721400451660157 3.9906600952148437 9.377109985351563 -159.998 68.4047 166.653 2.1476 -20.6126 2.57634 -2.80808 2.39164 -3.67916 19.6066 45.5565 -16.3197 -13.7267 -78.0491 1.191 -107.1176 -7.28683 4.14222 -54.0064 -4.37729 -387.507 0.0 64.2975 0.0 15.2601 -34.1418 -25.8645 0.0 0.0 0.0 0.0 0.0 0.0 108.8786 -13.2664 3.35089 46.1583 -9.91813 -335.192 0.0 112.7 0.0 -2.9499 -37.9385 69.8309 0.0 0.0 0.0 0.0 0.0 0.0 -1.62921 -16.7589 -11.3888 0.0 0.963049 0.0 -1.49937 -1.1604004 16.3841 0.0 -10.0264 0.0 10.1684 -18.7209 383.832 0.0 21.5563 0.0 6.61385 -1.6991005 -23.0072 0.0 -23.540321 0.0 
  -2.375119934082031 3.9872198486328125 9.375709838867188 -160.24 68.3749 166.836 2.2236 -20.409 2.79148 -3.13982 1.79923 -3.54388 20.22 45.5792 -16.9741 -13.361 -78.0062 1.59644 -106.9917 -7.22886 4.66091 -53.9585 -4.29515 -387.598 0.0 64.3102 0.0 15.391 -34.1823 -25.8004 0.0 0.0 0.0 0.0 0.0 0.0 108.959 -13.4741 3.10647 46.058 -9.79053 -335.361 0.0 112.823 0.0 -3.41667 -37.9092 69.7199 0.0 0.0 0.0 0.0 0.0 0.0 -1.67766 -16.7796 -11.3287 0.0 0.96401 0.0 -1.49638 -1.1898994 16.383 0.0 -10.01241 0.0 10.0259 -18.5598 383.783 0.0 21.1775 0.0 6.50548 -1.7779999 -22.9535 0.0 -23.331001 0.0 
  -2.377969970703125 3.9843600463867186 9.374810180664063 -160.41 68.3926 166.961 2.17764 -20.4563 2.83338 -3.16904 1.79093 -3.46184 20.2709 45.4341 -17.0657 -13.1809 -77.9788 1.75328 -107.043 -7.2937 4.45935 -53.9425 -4.38814 -387.657 0.0 64.2039 0.0 15.3558 -34.2196 -25.939 0.0 0.0 0.0 0.0 0.0 0.0 108.9235 -13.4337 3.09966 46.0444 -9.66191 -335.421 0.0 112.873 0.0 -2.73658 -37.5587 69.14 0.0 0.0 0.0 0.0 0.0 0.0 -1.71269 -16.7527 -11.276 0.0 0.963368 0.0 -1.4986 -1.2064991 16.3767 0.0 -10.01215 0.0 9.9079 -18.3214 383.822 0.0 20.7433 0.0 6.36399 -1.8143005 -23.0583 0.0 -23.12977 0.0 
  -2.3817100524902344 3.9797698974609377 9.374089965820312 -160.483 68.412 167.019 2.15483 -20.5222 2.88014 -3.21826 1.78975 -3.39007 20.3518 45.3243 -17.1714 -12.9596 -77.9576 1.90268 -107.0972 -7.29648 4.45444 -53.878 -4.4752 -387.696 0.0 64.2145 0.0 15.3944 -34.2164 -25.8254 0.0 0.0 0.0 0.0 0.0 0.0 108.9506 -13.426 3.06808 45.9734 -9.55433 -335.576 0.0 113.031 0.0 -3.32226 -37.9738 69.0805 0.0 0.0 0.0 0.0 0.0 0.0 -1.71004 -16.7016 -11.2506 0.0 0.944577 0.0 -1.51354 -1.2360001 16.3673 0.0 -10.01188 0.0 9.8166 -18.0599 383.776 0.0 20.2894 0.0 6.22801 -1.8073997 -23.141 0.0 -22.96417 0.0 
  -2.385740051269531 3.9750900268554688 9.37364013671875 -160.543 68.4571 167.046 2.13166 -20.5713 2.92124 -3.24677 1.82088 -3.32211 20.3752 45.2095 -17.2326 -12.8531 -77.9402 1.92388 -107.1374 -7.35969 4.43027 -53.8514 -4.48587 -387.762 0.0 64.1685 0.0 15.34 -34.278 -25.7924 0.0 0.0 0.0 0.0 0.0 0.0 108.9335 -13.365 3.04651 46.0208 -9.54344 -335.414 0.0 112.989 0.0 -1.8194 -37.048 69.2158 0.0 0.0 0.0 0.0 0.0 0.0 -1.7074 -16.6291 -11.1914 0.0 0.937268 0.0 -1.51683 -1.2637997 16.3678 0.0 -10.01591 0.0 9.74302 -17.8091 383.705 0.0 19.9045 0.0 6.03697 -1.7744999 -23.2129 0.0 -22.81278 0.0 
  -2.38947998046875 3.9721798706054687 9.373560180664063 -160.64 68.4531 167.114 2.12736 -20.6335 2.96994 -3.30328 1.81807 -3.2619 20.4764 45.0843 -17.3949 -12.7873 -77.9261 1.91307 -107.1794 -7.40979 4.40322 -53.809 -4.54439 -387.744 0.0 64.1541 0.0 15.4266 -34.2512 -25.8097 0.0 0.0 0.0 0.0 0.0 0.0 108.94 -13.3209 3.04661 46.0097 -9.55767 -335.501 0.0 113.054 0.0 -1.84022 -37.0181 68.9348 0.0 0.0 0.0 0.0 0.0 0.0 -1.72424 -16.6447 -11.1638 0.0 0.981544 0.0 -1.45684 -1.2747993 16.4309 0.0 -10.01723 0.0 9.67705 -17.6087 383.719 0.0 19.5048 0.0 5.86258 -1.7276001 -23.3655 0.0 -22.66764 0.0 
